<?xml version="1.0" encoding="iso-8859-1"?>
<!-- Generator: Adobe Illustrator 19.0.0, SVG Export Plug-In . SVG Version: 6.00 Build 0)  -->
<svg version="1.1" id="Layer_1" xmlns="http://www.w3.org/2000/svg" xmlns:xlink="http://www.w3.org/1999/xlink" x="0px" y="0px"
	 viewBox="0 0 512 512" style="enable-background:new 0 0 512 512;" xml:space="preserve">
<g>
	<g>
		<g>
			<path d="M381.208,214.697h-50.977c-6.611,0-11.97-5.359-11.97-11.97v-50.976c0-6.611-5.359-11.97-11.97-11.97h-58.663
				c-6.611,0-11.97,5.359-11.97,11.97v50.977c0,6.611-5.359,11.97-11.97,11.97h-50.977c-6.611,0-11.97,5.359-11.97,11.97v58.663
				c0,6.611,5.359,11.97,11.97,11.97h50.977c6.611,0,11.97,5.359,11.97,11.97v50.977c0,6.611,5.359,11.97,11.97,11.97h58.663
				c6.609-0.002,11.97-5.361,11.97-11.972v-50.977c0-6.611,5.359-11.97,11.97-11.97h50.977c6.611,0,11.97-5.359,11.97-11.97v-58.663
				C393.178,220.056,387.819,214.697,381.208,214.697z"/>
			<path d="M465.094,20.959H88.823c-25.865,0-46.906,21.041-46.906,46.906v29.527H12.792C5.728,97.392,0,103.119,0,110.184v93.078
				c0,7.065,5.728,12.792,12.792,12.792h29.124v79.776H12.792C5.728,295.831,0,301.558,0,308.623v93.078
				c0,7.065,5.728,12.793,12.792,12.793h29.124v29.641c0,25.865,21.041,46.906,46.906,46.906h376.272
				C490.959,491.041,512,470,512,444.135V67.865C512,42,490.957,20.959,465.094,20.959z M41.917,388.909H25.585v-67.493h16.332
				V388.909z M41.917,190.47H25.585v-67.493h16.332V190.47z M486.415,444.135c0,11.757-9.564,21.321-21.321,21.321H88.823
				c-11.757,0-21.321-9.564-21.321-21.321c0-4.737,0-363.583,0-376.272c0-11.757,9.564-21.321,21.321-21.321h376.272
				c11.757,0,21.321,9.564,21.321,21.321V444.135z"/>
			<circle cx="454.338" cy="256.003" r="15.114"/>
		</g>
	</g>
</g>
<g>
</g>
<g>
</g>
<g>
</g>
<g>
</g>
<g>
</g>
<g>
</g>
<g>
</g>
<g>
</g>
<g>
</g>
<g>
</g>
<g>
</g>
<g>
</g>
<g>
</g>
<g>
</g>
<g>
</g>
</svg>
