<svg xmlns="http://www.w3.org/2000/svg" width="42" height="45" viewBox="0 0 42 45">
  <g id="emergency" transform="translate(-141 -669)">
    <g id="Polygon_2" data-name="Polygon 2" transform="translate(141 669)" fill="#fff">
      <path d="M 35.03585815429688 33.99999618530273 L 6.964148044586182 33.99999618530273 C 5.919268131256104 33.99999618530273 5.403228282928467 33.29795837402344 5.229857921600342 32.99611663818359 C 5.056498050689697 32.69428634643555 4.710108280181885 31.89480781555176 5.236588001251221 30.99225807189941 L 19.27244758605957 6.930797576904297 C 19.79485893249512 6.035227298736572 20.65460777282715 5.938547611236572 21.00000762939453 5.938547611236572 C 21.34539794921875 5.938547611236572 22.20514869689941 6.035227298736572 22.72755813598633 6.930797576904297 L 36.76340866088867 30.99225807189941 C 37.28989791870117 31.89480781555176 36.94349670410156 32.69428634643555 36.77013778686523 32.99612808227539 C 36.59676742553711 33.29795837402344 36.08073806762695 33.99999618530273 35.03585815429688 33.99999618530273 Z" stroke="none"/>
      <path d="M 21.0000057220459 7.938543319702148 L 21.00000762939453 7.93853759765625 L 6.964145660400391 31.99999618530273 C 6.964145660400391 31.99999618530273 6.964145660400391 31.99999809265137 6.964149475097656 31.99999809265137 L 35.03584671020508 31.99999809265137 L 21.00000762939453 7.938547134399414 C 21.00000762939453 7.938545227050781 21.0000057220459 7.938543319702148 21.0000057220459 7.938543319702148 M 21.00000381469727 3.938541412353516 C 22.34168243408203 3.938541412353516 23.68336296081543 4.600048065185547 24.45511817932129 5.923057556152344 L 38.490966796875 29.98451614379883 C 40.0464973449707 32.65113830566406 38.12301635742188 35.99999618530273 35.03585815429688 35.99999618530273 L 6.964149475097656 35.99999618530273 C 3.876979827880859 35.99999618530273 1.953498840332031 32.65113830566406 3.509029388427734 29.98451614379883 L 17.54488754272461 5.923057556152344 C 18.31664276123047 4.600048065185547 19.65832328796387 3.938541412353516 21.00000381469727 3.938541412353516 Z" stroke="none" fill="red"/>
    </g>
    <line id="Line_3" data-name="Line 3" y2="10.465" transform="translate(161.93 686.878)" fill="none" stroke="red" stroke-linecap="round" stroke-width="2"/>
    <line id="Line_4" data-name="Line 4" x2="10.247" transform="translate(156.807 692.11)" fill="none" stroke="red" stroke-linecap="round" stroke-width="2"/>
    <text id="Emergency-2" data-name="Emergency" transform="translate(145 712)" fill="#009414" font-size="7" font-family="Roboto-Regular, Roboto"><tspan x="0" y="0">Emergency</tspan></text>
  </g>
</svg>
