<svg xmlns="http://www.w3.org/2000/svg" width="55" height="42" viewBox="0 0 55 42">
  <g id="Home_not_selected" data-name="Home not selected" transform="translate(-30 -671)">
    <g id="Polygon_1" data-name="Polygon 1" transform="translate(30 671)" fill="#fff">
      <path d="M 45.77444839477539 19.50000381469727 L 9.225547790527344 19.50000381469727 C 7.886688232421875 19.50000381469727 7.11956787109375 18.60793495178223 6.848098278045654 17.77310371398926 C 6.576618194580078 16.93827438354492 6.672338008880615 15.76564407348633 7.755127906799316 14.97816467285156 L 26.02957725524902 1.687654256820679 C 26.45969772338867 1.374834299087524 26.96815872192383 1.209494233131409 27.49999809265137 1.209494233131409 C 28.03183746337891 1.209494233131409 28.54030799865723 1.374834299087524 28.97042846679688 1.687654256820679 L 47.24487686157227 14.97816467285156 C 48.32766723632812 15.76563453674316 48.42337799072266 16.93827438354492 48.15190887451172 17.77310371398926 C 47.88042831420898 18.60794448852539 47.11330795288086 19.50000381469727 45.77444839477539 19.50000381469727 Z" stroke="none"/>
      <path d="M 27.49999809265137 1.709484100341797 C 27.07452774047852 1.709484100341797 26.66775894165039 1.841764450073242 26.32364845275879 2.092023849487305 L 8.049209594726562 15.38253402709961 C 7.182979583740234 16.01251411437988 7.106407165527344 16.95062446594238 7.323577880859375 17.61848449707031 C 7.540756225585938 18.28635406494141 8.154457092285156 19.00000381469727 9.225547790527344 19.00000381469727 L 45.77444839477539 19.00000381469727 C 46.84553909301758 19.00000381469727 47.45923614501953 18.28635406494141 47.67641830444336 17.61848449707031 C 47.89358901977539 16.95062446594238 47.8170166015625 16.01251411437988 46.95079040527344 15.38253402709961 L 28.67633819580078 2.092023849487305 C 28.33222770690918 1.841764450073242 27.92545890808105 1.709484100341797 27.49999809265137 1.709484100341797 M 27.49999618530273 0.7094898223876953 C 28.11926651000977 0.7094898223876953 28.73853302001953 0.9007549285888672 29.26450729370117 1.283285140991211 L 47.53895950317383 14.5737943649292 C 49.88869857788086 16.28268432617188 48.67988967895508 20.00000381469727 45.77444839477539 20.00000381469727 L 9.225547790527344 20.00000381469727 C 6.320106506347656 19.9999942779541 5.111297607421875 16.28269386291504 7.461036682128906 14.5737943649292 L 25.73547744750977 1.283285140991211 C 26.2614574432373 0.9007549285888672 26.88072776794434 0.7094898223876953 27.49999618530273 0.7094898223876953 Z" stroke="none" fill="#f9880e"/>
    </g>
    <g id="Rectangle_37" data-name="Rectangle 37" transform="translate(38 691)" fill="#fff" stroke="#f9880e" stroke-width="1">
      <rect width="39" height="22" rx="4" stroke="none"/>
      <rect x="0.5" y="0.5" width="38" height="21" rx="3.5" fill="none"/>
    </g>
    <g id="Rectangle_38" data-name="Rectangle 38" transform="translate(52 699)" fill="none" stroke="#f9880e" stroke-width="1">
      <path d="M3,0H9a3,3,0,0,1,3,3V14a0,0,0,0,1,0,0H0a0,0,0,0,1,0,0V3A3,3,0,0,1,3,0Z" stroke="none"/>
      <path d="M3,.5H9A2.5,2.5,0,0,1,11.5,3V13.5a0,0,0,0,1,0,0H.5a0,0,0,0,1,0,0V3A2.5,2.5,0,0,1,3,.5Z" fill="none"/>
    </g>
  </g>
</svg>
