<svg xmlns="http://www.w3.org/2000/svg" xmlns:xlink="http://www.w3.org/1999/xlink" width="59.721" height="52.109" viewBox="0 0 59.721 52.109">
  <defs>
    <filter id="Subtraction_1" x="0" y="8.5" width="59.721" height="43.609" filterUnits="userSpaceOnUse">
      <feOffset dy="3" input="SourceAlpha"/>
      <feGaussianBlur stdDeviation="3" result="blur"/>
      <feFlood flood-opacity="0.161"/>
      <feComposite operator="in" in2="blur"/>
      <feComposite in="SourceGraphic"/>
    </filter>
  </defs>
  <g id="User_Photo_not_selected" data-name="User Photo not selected" transform="translate(-38 -70.89)">
    <g transform="matrix(1, 0, 0, 1, 38, 70.89)" filter="url(#Subtraction_1)">
      <g id="Subtraction_1-2" data-name="Subtraction 1" transform="translate(9 14.5)" fill="#fff">
        <path d="M 20.86047554016113 24.60913467407227 C 15.47878456115723 24.60913467407227 10.43314456939697 23.26198577880859 6.653024673461914 20.81584548950195 C 3.007544755935669 18.45661544799805 0.9998746514320374 15.36450576782227 0.9998746514320374 12.10913562774658 C 0.9998746514320374 9.81004524230957 2.018104553222656 7.55564546585083 3.944494724273682 5.58965539932251 C 5.735208511352539 3.76205587387085 8.22099781036377 2.257122993469238 11.16873168945312 1.210301637649536 C 13.25175666809082 4.561064720153809 16.89153480529785 6.609375476837158 20.86047554016113 6.609375476837158 C 24.82936668395996 6.609375476837158 28.46910285949707 4.561016082763672 30.55210494995117 1.210182666778564 C 33.49989700317383 2.256993532180786 35.9857292175293 3.76191520690918 37.77644348144531 5.589505195617676 C 39.70292282104492 7.555605411529541 40.72119522094727 9.810055732727051 40.72119522094727 12.10913562774658 C 40.72119522094727 15.36455535888672 38.71356582641602 18.4566650390625 35.06813430786133 20.81586456298828 C 31.28804397583008 23.26198577880859 26.2423152923584 24.60913467407227 20.86047554016113 24.60913467407227 Z" stroke="none"/>
        <path d="M 20.86047554016113 23.60913467407227 C 26.05186462402344 23.60913467407227 30.90465545654297 22.31896591186523 34.52482604980469 19.9763355255127 C 37.87575531005859 17.80772590637207 39.72119522094727 15.01376533508301 39.72119522094727 12.10913562774658 C 39.72119522094727 10.07713508605957 38.80172348022461 8.064705848693848 37.06217575073242 6.289375305175781 C 35.52480316162109 4.720346927642822 33.42935562133789 3.39942741394043 30.94357681274414 2.423714399337769 C 28.62580871582031 5.659613132476807 24.90029144287109 7.609375476837158 20.86047554016113 7.609375476837158 C 16.82061386108398 7.609375476837158 13.09506988525391 5.659663200378418 10.77728080749512 2.423840761184692 C 8.29155158996582 3.399556159973145 6.19614315032959 4.720479965209961 4.658754825592041 6.289525508880615 C 2.919304609298706 8.064745903015137 1.999874711036682 10.07713508605957 1.999874711036682 12.10913562774658 C 1.999874711036682 15.01371574401855 3.845364570617676 17.80767631530762 7.196304798126221 19.97629547119141 C 10.81653499603271 22.31896591186523 15.66923427581787 23.60913467407227 20.86047554016113 23.60913467407227 M 20.86047554016113 25.60913467407227 C 15.28820419311523 25.60913467407227 10.04968452453613 24.2049560546875 6.109744548797607 21.6553955078125 C 2.169804573059082 19.10559463500977 -0.0001253320369869471 15.71533584594727 -0.0001253320369869471 12.10913562774658 C -0.0001253320369869471 9.542965888977051 1.116944670677185 7.046505451202393 3.230224609375 4.889775276184082 C 5.28711462020874 2.790525436401367 8.191044807434082 1.099735379219055 11.62805461883545 0.0001254296803381294 C 13.44043445587158 3.460205316543579 16.97753524780273 5.609375476837158 20.86047554016113 5.609375476837158 C 24.74292373657227 5.609375476837158 28.28051376342773 3.459965467453003 30.09277534484863 5.42968746231054e-06 C 33.53064346313477 1.099855422973633 36.4342041015625 2.790775537490845 38.49072647094727 4.889645576477051 C 40.60424423217773 7.046635627746582 41.72119522094727 9.543095588684082 41.72119522094727 12.10913562774658 C 41.72119522094727 15.71533584594727 39.55139541625977 19.10559463500977 35.61145401000977 21.6553955078125 C 31.67150497436523 24.2049560546875 26.43286514282227 25.60913467407227 20.86047554016113 25.60913467407227 Z" stroke="none" fill="#f9880e"/>
      </g>
    </g>
    <g id="Ellipse_4" data-name="Ellipse 4" transform="translate(59 70.89)" fill="#fff" stroke="#f9880e" stroke-width="2">
      <circle cx="8.5" cy="8.5" r="8.5" stroke="none"/>
      <circle cx="8.5" cy="8.5" r="7.5" fill="none"/>
    </g>
  </g>
</svg>
